<svg xmlns="http://www.w3.org/2000/svg" version="1.1" xmlns:xlink="http://www.w3.org/1999/xlink" xmlns:svgjs="http://svgjs.com/svgjs" width="1440" height="560" preserveAspectRatio="none" viewBox="0 0 1440 560"><g mask="url(&quot;#SvgjsMask2455&quot;)" fill="none"><rect width="1440" height="560" x="0" y="0" fill="url(#SvgjsLinearGradient2456)"></rect><path d="M68.92 -32.3L133.87 5.2L133.87 80.2L68.92 117.7L3.97 80.2L3.97 5.2zM68.92 192.7L133.87 230.2L133.87 305.2L68.92 342.7L3.97 305.2L3.97 230.2zM68.92 417.7L133.87 455.2L133.87 530.2L68.92 567.7L3.97 530.2L3.97 455.2zM133.87 530.2L198.83 567.7L198.83 642.7L133.87 680.2L68.92 642.7L68.92 567.7zM263.78 80.2L328.74 117.7L328.74 192.7L263.78 230.2L198.83 192.7L198.83 117.7zM198.83 417.7L263.78 455.2L263.78 530.2L198.83 567.7L133.87 530.2L133.87 455.2zM328.74 -32.3L393.69 5.2L393.69 80.2L328.74 117.7L263.78 80.2L263.78 5.2zM523.6 530.2L588.55 567.7L588.55 642.7L523.6 680.2L458.64 642.7L458.64 567.7zM588.55 -32.3L653.5 5.2L653.5 80.2L588.55 117.7L523.6 80.2L523.6 5.2zM588.55 192.7L653.5 230.2L653.5 305.2L588.55 342.7L523.6 305.2L523.6 230.2zM718.46 -32.3L783.41 5.2L783.41 80.2L718.46 117.7L653.5 80.2L653.5 5.2zM783.41 530.2L848.37 567.7L848.37 642.7L783.41 680.2L718.46 642.7L718.46 567.7zM848.36 192.7L913.32 230.2L913.32 305.2L848.36 342.7L783.41 305.2L783.41 230.2zM913.32 305.2L978.27 342.7L978.27 417.7L913.32 455.2L848.36 417.7L848.36 342.7zM1043.23 80.2L1108.18 117.7L1108.18 192.7L1043.23 230.2L978.27 192.7L978.27 117.7zM978.27 192.7L1043.23 230.2L1043.23 305.2L978.27 342.7L913.32 305.2L913.32 230.2zM1173.13 80.2L1238.09 117.7L1238.09 192.7L1173.13 230.2L1108.18 192.7L1108.18 117.7zM1108.18 192.7L1173.13 230.2L1173.13 305.2L1108.18 342.7L1043.23 305.2L1043.23 230.2zM1108.18 417.7L1173.13 455.2L1173.13 530.2L1108.18 567.7L1043.23 530.2L1043.23 455.2zM1173.13 530.2L1238.09 567.7L1238.09 642.7L1173.13 680.2L1108.18 642.7L1108.18 567.7zM1303.04 80.2L1367.99 117.7L1367.99 192.7L1303.04 230.2L1238.09 192.7L1238.09 117.7zM1238.09 417.7L1303.04 455.2L1303.04 530.2L1238.09 567.7L1173.13 530.2L1173.13 455.2zM1303.04 530.2L1367.99 567.7L1367.99 642.7L1303.04 680.2L1238.09 642.7L1238.09 567.7zM1368 -32.3L1432.95 5.2L1432.95 80.2L1368 117.7L1303.04 80.2L1303.04 5.2zM1432.95 80.2L1497.9 117.7L1497.9 192.7L1432.95 230.2L1368 192.7L1368 117.7zM1432.95 305.2L1497.9 342.7L1497.9 417.7L1432.95 455.2L1368 417.7L1368 342.7zM1562.86 305.2L1627.81 342.7L1627.81 417.7L1562.86 455.2L1497.9 417.7L1497.9 342.7zM1562.86 530.2L1627.81 567.7L1627.81 642.7L1562.86 680.2L1497.9 642.7L1497.9 567.7z" stroke="#03305d" stroke-width="2"></path><path d="M61.42 -32.3 a7.5 7.5 0 1 0 15 0 a7.5 7.5 0 1 0 -15 0zM126.37 5.2 a7.5 7.5 0 1 0 15 0 a7.5 7.5 0 1 0 -15 0zM126.37 80.2 a7.5 7.5 0 1 0 15 0 a7.5 7.5 0 1 0 -15 0zM61.42 117.7 a7.5 7.5 0 1 0 15 0 a7.5 7.5 0 1 0 -15 0zM-3.53 80.2 a7.5 7.5 0 1 0 15 0 a7.5 7.5 0 1 0 -15 0zM-3.53 5.2 a7.5 7.5 0 1 0 15 0 a7.5 7.5 0 1 0 -15 0zM61.42 192.7 a7.5 7.5 0 1 0 15 0 a7.5 7.5 0 1 0 -15 0zM126.37 230.2 a7.5 7.5 0 1 0 15 0 a7.5 7.5 0 1 0 -15 0zM126.37 305.2 a7.5 7.5 0 1 0 15 0 a7.5 7.5 0 1 0 -15 0zM61.42 342.7 a7.5 7.5 0 1 0 15 0 a7.5 7.5 0 1 0 -15 0zM-3.53 305.2 a7.5 7.5 0 1 0 15 0 a7.5 7.5 0 1 0 -15 0zM-3.53 230.2 a7.5 7.5 0 1 0 15 0 a7.5 7.5 0 1 0 -15 0zM61.42 417.7 a7.5 7.5 0 1 0 15 0 a7.5 7.5 0 1 0 -15 0zM126.37 455.2 a7.5 7.5 0 1 0 15 0 a7.5 7.5 0 1 0 -15 0zM126.37 530.2 a7.5 7.5 0 1 0 15 0 a7.5 7.5 0 1 0 -15 0zM61.42 567.7 a7.5 7.5 0 1 0 15 0 a7.5 7.5 0 1 0 -15 0zM-3.53 530.2 a7.5 7.5 0 1 0 15 0 a7.5 7.5 0 1 0 -15 0zM-3.53 455.2 a7.5 7.5 0 1 0 15 0 a7.5 7.5 0 1 0 -15 0zM191.33 567.7 a7.5 7.5 0 1 0 15 0 a7.5 7.5 0 1 0 -15 0zM191.33 642.7 a7.5 7.5 0 1 0 15 0 a7.5 7.5 0 1 0 -15 0zM126.37 680.2 a7.5 7.5 0 1 0 15 0 a7.5 7.5 0 1 0 -15 0zM61.42 642.7 a7.5 7.5 0 1 0 15 0 a7.5 7.5 0 1 0 -15 0zM256.28 80.2 a7.5 7.5 0 1 0 15 0 a7.5 7.5 0 1 0 -15 0zM321.24 117.7 a7.5 7.5 0 1 0 15 0 a7.5 7.5 0 1 0 -15 0zM321.24 192.7 a7.5 7.5 0 1 0 15 0 a7.5 7.5 0 1 0 -15 0zM256.28 230.2 a7.5 7.5 0 1 0 15 0 a7.5 7.5 0 1 0 -15 0zM191.33 192.7 a7.5 7.5 0 1 0 15 0 a7.5 7.5 0 1 0 -15 0zM191.33 117.7 a7.5 7.5 0 1 0 15 0 a7.5 7.5 0 1 0 -15 0zM191.33 417.7 a7.5 7.5 0 1 0 15 0 a7.5 7.5 0 1 0 -15 0zM256.28 455.2 a7.5 7.5 0 1 0 15 0 a7.5 7.5 0 1 0 -15 0zM256.28 530.2 a7.5 7.5 0 1 0 15 0 a7.5 7.5 0 1 0 -15 0zM321.24 -32.3 a7.5 7.5 0 1 0 15 0 a7.5 7.5 0 1 0 -15 0zM386.19 5.2 a7.5 7.5 0 1 0 15 0 a7.5 7.5 0 1 0 -15 0zM386.19 80.2 a7.5 7.5 0 1 0 15 0 a7.5 7.5 0 1 0 -15 0zM256.28 5.2 a7.5 7.5 0 1 0 15 0 a7.5 7.5 0 1 0 -15 0zM516.1 530.2 a7.5 7.5 0 1 0 15 0 a7.5 7.5 0 1 0 -15 0zM581.05 567.7 a7.5 7.5 0 1 0 15 0 a7.5 7.5 0 1 0 -15 0zM581.05 642.7 a7.5 7.5 0 1 0 15 0 a7.5 7.5 0 1 0 -15 0zM516.1 680.2 a7.5 7.5 0 1 0 15 0 a7.5 7.5 0 1 0 -15 0zM451.14 642.7 a7.5 7.5 0 1 0 15 0 a7.5 7.5 0 1 0 -15 0zM451.14 567.7 a7.5 7.5 0 1 0 15 0 a7.5 7.5 0 1 0 -15 0zM581.05 -32.3 a7.5 7.5 0 1 0 15 0 a7.5 7.5 0 1 0 -15 0zM646 5.2 a7.5 7.5 0 1 0 15 0 a7.5 7.5 0 1 0 -15 0zM646 80.2 a7.5 7.5 0 1 0 15 0 a7.5 7.5 0 1 0 -15 0zM581.05 117.7 a7.5 7.5 0 1 0 15 0 a7.5 7.5 0 1 0 -15 0zM516.1 80.2 a7.5 7.5 0 1 0 15 0 a7.5 7.5 0 1 0 -15 0zM516.1 5.2 a7.5 7.5 0 1 0 15 0 a7.5 7.5 0 1 0 -15 0zM581.05 192.7 a7.5 7.5 0 1 0 15 0 a7.5 7.5 0 1 0 -15 0zM646 230.2 a7.5 7.5 0 1 0 15 0 a7.5 7.5 0 1 0 -15 0zM646 305.2 a7.5 7.5 0 1 0 15 0 a7.5 7.5 0 1 0 -15 0zM581.05 342.7 a7.5 7.5 0 1 0 15 0 a7.5 7.5 0 1 0 -15 0zM516.1 305.2 a7.5 7.5 0 1 0 15 0 a7.5 7.5 0 1 0 -15 0zM516.1 230.2 a7.5 7.5 0 1 0 15 0 a7.5 7.5 0 1 0 -15 0zM710.96 -32.3 a7.5 7.5 0 1 0 15 0 a7.5 7.5 0 1 0 -15 0zM775.91 5.2 a7.5 7.5 0 1 0 15 0 a7.5 7.5 0 1 0 -15 0zM775.91 80.2 a7.5 7.5 0 1 0 15 0 a7.5 7.5 0 1 0 -15 0zM710.96 117.7 a7.5 7.5 0 1 0 15 0 a7.5 7.5 0 1 0 -15 0zM775.91 530.2 a7.5 7.5 0 1 0 15 0 a7.5 7.5 0 1 0 -15 0zM840.87 567.7 a7.5 7.5 0 1 0 15 0 a7.5 7.5 0 1 0 -15 0zM840.87 642.7 a7.5 7.5 0 1 0 15 0 a7.5 7.5 0 1 0 -15 0zM775.91 680.2 a7.5 7.5 0 1 0 15 0 a7.5 7.5 0 1 0 -15 0zM710.96 642.7 a7.5 7.5 0 1 0 15 0 a7.5 7.5 0 1 0 -15 0zM710.96 567.7 a7.5 7.5 0 1 0 15 0 a7.5 7.5 0 1 0 -15 0zM840.86 192.7 a7.5 7.5 0 1 0 15 0 a7.5 7.5 0 1 0 -15 0zM905.82 230.2 a7.5 7.5 0 1 0 15 0 a7.5 7.5 0 1 0 -15 0zM905.82 305.2 a7.5 7.5 0 1 0 15 0 a7.5 7.5 0 1 0 -15 0zM840.86 342.7 a7.5 7.5 0 1 0 15 0 a7.5 7.5 0 1 0 -15 0zM775.91 305.2 a7.5 7.5 0 1 0 15 0 a7.5 7.5 0 1 0 -15 0zM775.91 230.2 a7.5 7.5 0 1 0 15 0 a7.5 7.5 0 1 0 -15 0zM970.77 342.7 a7.5 7.5 0 1 0 15 0 a7.5 7.5 0 1 0 -15 0zM970.77 417.7 a7.5 7.5 0 1 0 15 0 a7.5 7.5 0 1 0 -15 0zM905.82 455.2 a7.5 7.5 0 1 0 15 0 a7.5 7.5 0 1 0 -15 0zM840.86 417.7 a7.5 7.5 0 1 0 15 0 a7.5 7.5 0 1 0 -15 0zM1035.73 80.2 a7.5 7.5 0 1 0 15 0 a7.5 7.5 0 1 0 -15 0zM1100.68 117.7 a7.5 7.5 0 1 0 15 0 a7.5 7.5 0 1 0 -15 0zM1100.68 192.7 a7.5 7.5 0 1 0 15 0 a7.5 7.5 0 1 0 -15 0zM1035.73 230.2 a7.5 7.5 0 1 0 15 0 a7.5 7.5 0 1 0 -15 0zM970.77 192.7 a7.5 7.5 0 1 0 15 0 a7.5 7.5 0 1 0 -15 0zM970.77 117.7 a7.5 7.5 0 1 0 15 0 a7.5 7.5 0 1 0 -15 0zM1035.73 305.2 a7.5 7.5 0 1 0 15 0 a7.5 7.5 0 1 0 -15 0zM1165.63 80.2 a7.5 7.5 0 1 0 15 0 a7.5 7.5 0 1 0 -15 0zM1230.59 117.7 a7.5 7.5 0 1 0 15 0 a7.5 7.5 0 1 0 -15 0zM1230.59 192.7 a7.5 7.5 0 1 0 15 0 a7.5 7.5 0 1 0 -15 0zM1165.63 230.2 a7.5 7.5 0 1 0 15 0 a7.5 7.5 0 1 0 -15 0zM1165.63 305.2 a7.5 7.5 0 1 0 15 0 a7.5 7.5 0 1 0 -15 0zM1100.68 342.7 a7.5 7.5 0 1 0 15 0 a7.5 7.5 0 1 0 -15 0zM1100.68 417.7 a7.5 7.5 0 1 0 15 0 a7.5 7.5 0 1 0 -15 0zM1165.63 455.2 a7.5 7.5 0 1 0 15 0 a7.5 7.5 0 1 0 -15 0zM1165.63 530.2 a7.5 7.5 0 1 0 15 0 a7.5 7.5 0 1 0 -15 0zM1100.68 567.7 a7.5 7.5 0 1 0 15 0 a7.5 7.5 0 1 0 -15 0zM1035.73 530.2 a7.5 7.5 0 1 0 15 0 a7.5 7.5 0 1 0 -15 0zM1035.73 455.2 a7.5 7.5 0 1 0 15 0 a7.5 7.5 0 1 0 -15 0zM1230.59 567.7 a7.5 7.5 0 1 0 15 0 a7.5 7.5 0 1 0 -15 0zM1230.59 642.7 a7.5 7.5 0 1 0 15 0 a7.5 7.5 0 1 0 -15 0zM1165.63 680.2 a7.5 7.5 0 1 0 15 0 a7.5 7.5 0 1 0 -15 0zM1100.68 642.7 a7.5 7.5 0 1 0 15 0 a7.5 7.5 0 1 0 -15 0zM1295.54 80.2 a7.5 7.5 0 1 0 15 0 a7.5 7.5 0 1 0 -15 0zM1360.49 117.7 a7.5 7.5 0 1 0 15 0 a7.5 7.5 0 1 0 -15 0zM1360.49 192.7 a7.5 7.5 0 1 0 15 0 a7.5 7.5 0 1 0 -15 0zM1295.54 230.2 a7.5 7.5 0 1 0 15 0 a7.5 7.5 0 1 0 -15 0zM1230.59 417.7 a7.5 7.5 0 1 0 15 0 a7.5 7.5 0 1 0 -15 0zM1295.54 455.2 a7.5 7.5 0 1 0 15 0 a7.5 7.5 0 1 0 -15 0zM1295.54 530.2 a7.5 7.5 0 1 0 15 0 a7.5 7.5 0 1 0 -15 0zM1360.49 567.7 a7.5 7.5 0 1 0 15 0 a7.5 7.5 0 1 0 -15 0zM1360.49 642.7 a7.5 7.5 0 1 0 15 0 a7.5 7.5 0 1 0 -15 0zM1295.54 680.2 a7.5 7.5 0 1 0 15 0 a7.5 7.5 0 1 0 -15 0zM1360.5 -32.3 a7.5 7.5 0 1 0 15 0 a7.5 7.5 0 1 0 -15 0zM1425.45 5.2 a7.5 7.5 0 1 0 15 0 a7.5 7.5 0 1 0 -15 0zM1425.45 80.2 a7.5 7.5 0 1 0 15 0 a7.5 7.5 0 1 0 -15 0zM1360.5 117.7 a7.5 7.5 0 1 0 15 0 a7.5 7.5 0 1 0 -15 0zM1295.54 5.2 a7.5 7.5 0 1 0 15 0 a7.5 7.5 0 1 0 -15 0zM1490.4 117.7 a7.5 7.5 0 1 0 15 0 a7.5 7.5 0 1 0 -15 0zM1490.4 192.7 a7.5 7.5 0 1 0 15 0 a7.5 7.5 0 1 0 -15 0zM1425.45 230.2 a7.5 7.5 0 1 0 15 0 a7.5 7.5 0 1 0 -15 0zM1360.5 192.7 a7.5 7.5 0 1 0 15 0 a7.5 7.5 0 1 0 -15 0zM1425.45 305.2 a7.5 7.5 0 1 0 15 0 a7.5 7.5 0 1 0 -15 0zM1490.4 342.7 a7.5 7.5 0 1 0 15 0 a7.5 7.5 0 1 0 -15 0zM1490.4 417.7 a7.5 7.5 0 1 0 15 0 a7.5 7.5 0 1 0 -15 0zM1425.45 455.2 a7.5 7.5 0 1 0 15 0 a7.5 7.5 0 1 0 -15 0zM1360.5 417.7 a7.5 7.5 0 1 0 15 0 a7.5 7.5 0 1 0 -15 0zM1360.5 342.7 a7.5 7.5 0 1 0 15 0 a7.5 7.5 0 1 0 -15 0zM1555.36 305.2 a7.5 7.5 0 1 0 15 0 a7.5 7.5 0 1 0 -15 0zM1620.31 342.7 a7.5 7.5 0 1 0 15 0 a7.5 7.5 0 1 0 -15 0zM1620.31 417.7 a7.5 7.5 0 1 0 15 0 a7.5 7.5 0 1 0 -15 0zM1555.36 455.2 a7.5 7.5 0 1 0 15 0 a7.5 7.5 0 1 0 -15 0zM1555.36 530.2 a7.5 7.5 0 1 0 15 0 a7.5 7.5 0 1 0 -15 0zM1620.31 567.7 a7.5 7.5 0 1 0 15 0 a7.5 7.5 0 1 0 -15 0zM1620.31 642.7 a7.5 7.5 0 1 0 15 0 a7.5 7.5 0 1 0 -15 0zM1555.36 680.2 a7.5 7.5 0 1 0 15 0 a7.5 7.5 0 1 0 -15 0zM1490.4 642.7 a7.5 7.5 0 1 0 15 0 a7.5 7.5 0 1 0 -15 0zM1490.4 567.7 a7.5 7.5 0 1 0 15 0 a7.5 7.5 0 1 0 -15 0z" fill="#03305d"></path><path d="M122.29 166.41L228.82 227.91L228.82 350.91L122.29 412.41L15.77 350.91L15.77 227.91zM122.29 535.41L228.82 596.91L228.82 719.91L122.29 781.41L15.77 719.91L15.77 596.91zM228.82 -18.09L335.34 43.41L335.34 166.41L228.82 227.91L122.29 166.41L122.29 43.41zM335.34 166.41L441.87 227.91L441.87 350.91L335.34 412.41L228.82 350.91L228.82 227.91zM228.82 350.91L335.34 412.41L335.34 535.41L228.82 596.91L122.29 535.41L122.29 412.41zM441.87 350.91L548.39 412.41L548.39 535.41L441.87 596.91L335.34 535.41L335.34 412.41zM761.44 166.41L867.96 227.91L867.96 350.91L761.44 412.41L654.91 350.91L654.91 227.91zM1081.01 -18.09L1187.54 43.41L1187.54 166.41L1081.01 227.91L974.49 166.41L974.49 43.41zM1187.54 166.41L1294.06 227.91L1294.06 350.91L1187.54 412.41L1081.01 350.91L1081.01 227.91zM1294.06 -18.09L1400.58 43.41L1400.58 166.41L1294.06 227.91L1187.54 166.41L1187.54 43.41zM1400.58 166.41L1507.11 227.91L1507.11 350.91L1400.58 412.41L1294.06 350.91L1294.06 227.91zM1400.58 535.41L1507.11 596.91L1507.11 719.91L1400.58 781.41L1294.06 719.91L1294.06 596.91z" stroke="url(#SvgjsLinearGradient2457)" stroke-width="2"></path></g><defs><mask id="SvgjsMask2455"><rect width="1440" height="560" fill="#ffffff"></rect></mask><linearGradient x1="15.28%" y1="-39.29%" x2="84.72%" y2="139.29%" gradientUnits="userSpaceOnUse" id="SvgjsLinearGradient2456"><stop stop-color="#0e2a47" offset="0"></stop><stop stop-color="rgba(3, 101, 184, 1)" offset="0.92"></stop></linearGradient><linearGradient x1="220.03199999999998" y1="-220.02399999999997" x2="1219.9679999999998" y2="780.024" gradientUnits="userSpaceOnUse" id="SvgjsLinearGradient2457"><stop stop-color="#0e2a47" offset="0"></stop><stop stop-color="rgba(64, 97, 139, 1)" offset="1"></stop></linearGradient></defs></svg>