<svg xmlns="http://www.w3.org/2000/svg" version="1.1" xmlns:xlink="http://www.w3.org/1999/xlink" xmlns:svgjs="http://svgjs.com/svgjs" width="1440" height="560" preserveAspectRatio="none" viewBox="0 0 1440 560"><g mask="url(&quot;#SvgjsMask1000&quot;)" fill="none"><rect width="1440" height="560" x="0" y="0" fill="#0e2a47"></rect><path d="M61.88 -10.45L126.83 27.05L126.83 102.05L61.88 139.55L-3.07 102.05L-3.07 27.05zM126.83 327.05L191.79 364.55L191.79 439.55L126.83 477.05L61.88 439.55L61.88 364.55zM386.65 102.05L451.6 139.55L451.6 214.55L386.65 252.05L321.69 214.55L321.69 139.55zM321.69 439.55L386.65 477.05L386.65 552.05L321.69 589.55L256.74 552.05L256.74 477.05zM386.65 552.05L451.6 589.55L451.6 664.55L386.65 702.05L321.69 664.55L321.69 589.55zM451.6 -10.45L516.56 27.05L516.56 102.05L451.6 139.55L386.65 102.05L386.65 27.05zM516.56 327.05L581.51 364.55L581.51 439.55L516.56 477.05L451.6 439.55L451.6 364.55zM581.51 214.55L646.46 252.05L646.46 327.05L581.51 364.55L516.56 327.05L516.56 252.05zM646.46 327.05L711.42 364.55L711.42 439.55L646.46 477.05L581.51 439.55L581.51 364.55zM581.51 439.55L646.46 477.05L646.46 552.05L581.51 589.55L516.56 552.05L516.56 477.05zM646.46 552.05L711.42 589.55L711.42 664.55L646.46 702.05L581.51 664.55L581.51 589.55zM776.37 327.05L841.33 364.55L841.33 439.55L776.37 477.05L711.42 439.55L711.42 364.55zM906.28 552.05L971.23 589.55L971.23 664.55L906.28 702.05L841.32 664.55L841.32 589.55zM1101.14 439.55L1166.09 477.05L1166.09 552.05L1101.14 589.55L1036.19 552.05L1036.19 477.05zM1231.05 214.55L1296 252.05L1296 327.05L1231.05 364.55L1166.09 327.05L1166.09 252.05zM1296 327.05L1360.95 364.55L1360.95 439.55L1296 477.05L1231.05 439.55L1231.05 364.55zM1360.96 -10.45L1425.91 27.05L1425.91 102.05L1360.96 139.55L1296 102.05L1296 27.05zM1425.91 102.05L1490.86 139.55L1490.86 214.55L1425.91 252.05L1360.96 214.55L1360.96 139.55zM1360.96 439.55L1425.91 477.05L1425.91 552.05L1360.96 589.55L1296 552.05L1296 477.05zM1555.82 327.05L1620.77 364.55L1620.77 439.55L1555.82 477.05L1490.86 439.55L1490.86 364.55zM1555.82 552.05L1620.77 589.55L1620.77 664.55L1555.82 702.05L1490.86 664.55L1490.86 589.55z" stroke="#03305d" stroke-width="2"></path><path d="M54.38 -10.45 a7.5 7.5 0 1 0 15 0 a7.5 7.5 0 1 0 -15 0zM119.33 27.05 a7.5 7.5 0 1 0 15 0 a7.5 7.5 0 1 0 -15 0zM119.33 102.05 a7.5 7.5 0 1 0 15 0 a7.5 7.5 0 1 0 -15 0zM54.38 139.55 a7.5 7.5 0 1 0 15 0 a7.5 7.5 0 1 0 -15 0zM-10.57 102.05 a7.5 7.5 0 1 0 15 0 a7.5 7.5 0 1 0 -15 0zM-10.57 27.05 a7.5 7.5 0 1 0 15 0 a7.5 7.5 0 1 0 -15 0zM119.33 327.05 a7.5 7.5 0 1 0 15 0 a7.5 7.5 0 1 0 -15 0zM184.29 364.55 a7.5 7.5 0 1 0 15 0 a7.5 7.5 0 1 0 -15 0zM184.29 439.55 a7.5 7.5 0 1 0 15 0 a7.5 7.5 0 1 0 -15 0zM119.33 477.05 a7.5 7.5 0 1 0 15 0 a7.5 7.5 0 1 0 -15 0zM54.38 439.55 a7.5 7.5 0 1 0 15 0 a7.5 7.5 0 1 0 -15 0zM54.38 364.55 a7.5 7.5 0 1 0 15 0 a7.5 7.5 0 1 0 -15 0zM379.15 102.05 a7.5 7.5 0 1 0 15 0 a7.5 7.5 0 1 0 -15 0zM444.1 139.55 a7.5 7.5 0 1 0 15 0 a7.5 7.5 0 1 0 -15 0zM444.1 214.55 a7.5 7.5 0 1 0 15 0 a7.5 7.5 0 1 0 -15 0zM379.15 252.05 a7.5 7.5 0 1 0 15 0 a7.5 7.5 0 1 0 -15 0zM314.19 214.55 a7.5 7.5 0 1 0 15 0 a7.5 7.5 0 1 0 -15 0zM314.19 139.55 a7.5 7.5 0 1 0 15 0 a7.5 7.5 0 1 0 -15 0zM314.19 439.55 a7.5 7.5 0 1 0 15 0 a7.5 7.5 0 1 0 -15 0zM379.15 477.05 a7.5 7.5 0 1 0 15 0 a7.5 7.5 0 1 0 -15 0zM379.15 552.05 a7.5 7.5 0 1 0 15 0 a7.5 7.5 0 1 0 -15 0zM314.19 589.55 a7.5 7.5 0 1 0 15 0 a7.5 7.5 0 1 0 -15 0zM249.24 552.05 a7.5 7.5 0 1 0 15 0 a7.5 7.5 0 1 0 -15 0zM249.24 477.05 a7.5 7.5 0 1 0 15 0 a7.5 7.5 0 1 0 -15 0zM444.1 589.55 a7.5 7.5 0 1 0 15 0 a7.5 7.5 0 1 0 -15 0zM444.1 664.55 a7.5 7.5 0 1 0 15 0 a7.5 7.5 0 1 0 -15 0zM379.15 702.05 a7.5 7.5 0 1 0 15 0 a7.5 7.5 0 1 0 -15 0zM314.19 664.55 a7.5 7.5 0 1 0 15 0 a7.5 7.5 0 1 0 -15 0zM444.1 -10.45 a7.5 7.5 0 1 0 15 0 a7.5 7.5 0 1 0 -15 0zM509.06 27.05 a7.5 7.5 0 1 0 15 0 a7.5 7.5 0 1 0 -15 0zM509.06 102.05 a7.5 7.5 0 1 0 15 0 a7.5 7.5 0 1 0 -15 0zM379.15 27.05 a7.5 7.5 0 1 0 15 0 a7.5 7.5 0 1 0 -15 0zM509.06 327.05 a7.5 7.5 0 1 0 15 0 a7.5 7.5 0 1 0 -15 0zM574.01 364.55 a7.5 7.5 0 1 0 15 0 a7.5 7.5 0 1 0 -15 0zM574.01 439.55 a7.5 7.5 0 1 0 15 0 a7.5 7.5 0 1 0 -15 0zM509.06 477.05 a7.5 7.5 0 1 0 15 0 a7.5 7.5 0 1 0 -15 0zM444.1 439.55 a7.5 7.5 0 1 0 15 0 a7.5 7.5 0 1 0 -15 0zM444.1 364.55 a7.5 7.5 0 1 0 15 0 a7.5 7.5 0 1 0 -15 0zM574.01 214.55 a7.5 7.5 0 1 0 15 0 a7.5 7.5 0 1 0 -15 0zM638.96 252.05 a7.5 7.5 0 1 0 15 0 a7.5 7.5 0 1 0 -15 0zM638.96 327.05 a7.5 7.5 0 1 0 15 0 a7.5 7.5 0 1 0 -15 0zM509.06 252.05 a7.5 7.5 0 1 0 15 0 a7.5 7.5 0 1 0 -15 0zM703.92 364.55 a7.5 7.5 0 1 0 15 0 a7.5 7.5 0 1 0 -15 0zM703.92 439.55 a7.5 7.5 0 1 0 15 0 a7.5 7.5 0 1 0 -15 0zM638.96 477.05 a7.5 7.5 0 1 0 15 0 a7.5 7.5 0 1 0 -15 0zM638.96 552.05 a7.5 7.5 0 1 0 15 0 a7.5 7.5 0 1 0 -15 0zM574.01 589.55 a7.5 7.5 0 1 0 15 0 a7.5 7.5 0 1 0 -15 0zM509.06 552.05 a7.5 7.5 0 1 0 15 0 a7.5 7.5 0 1 0 -15 0zM703.92 589.55 a7.5 7.5 0 1 0 15 0 a7.5 7.5 0 1 0 -15 0zM703.92 664.55 a7.5 7.5 0 1 0 15 0 a7.5 7.5 0 1 0 -15 0zM638.96 702.05 a7.5 7.5 0 1 0 15 0 a7.5 7.5 0 1 0 -15 0zM574.01 664.55 a7.5 7.5 0 1 0 15 0 a7.5 7.5 0 1 0 -15 0zM768.87 327.05 a7.5 7.5 0 1 0 15 0 a7.5 7.5 0 1 0 -15 0zM833.83 364.55 a7.5 7.5 0 1 0 15 0 a7.5 7.5 0 1 0 -15 0zM833.83 439.55 a7.5 7.5 0 1 0 15 0 a7.5 7.5 0 1 0 -15 0zM768.87 477.05 a7.5 7.5 0 1 0 15 0 a7.5 7.5 0 1 0 -15 0zM898.78 552.05 a7.5 7.5 0 1 0 15 0 a7.5 7.5 0 1 0 -15 0zM963.73 589.55 a7.5 7.5 0 1 0 15 0 a7.5 7.5 0 1 0 -15 0zM963.73 664.55 a7.5 7.5 0 1 0 15 0 a7.5 7.5 0 1 0 -15 0zM898.78 702.05 a7.5 7.5 0 1 0 15 0 a7.5 7.5 0 1 0 -15 0zM833.82 664.55 a7.5 7.5 0 1 0 15 0 a7.5 7.5 0 1 0 -15 0zM833.82 589.55 a7.5 7.5 0 1 0 15 0 a7.5 7.5 0 1 0 -15 0zM1093.64 439.55 a7.5 7.5 0 1 0 15 0 a7.5 7.5 0 1 0 -15 0zM1158.59 477.05 a7.5 7.5 0 1 0 15 0 a7.5 7.5 0 1 0 -15 0zM1158.59 552.05 a7.5 7.5 0 1 0 15 0 a7.5 7.5 0 1 0 -15 0zM1093.64 589.55 a7.5 7.5 0 1 0 15 0 a7.5 7.5 0 1 0 -15 0zM1028.69 552.05 a7.5 7.5 0 1 0 15 0 a7.5 7.5 0 1 0 -15 0zM1028.69 477.05 a7.5 7.5 0 1 0 15 0 a7.5 7.5 0 1 0 -15 0zM1223.55 214.55 a7.5 7.5 0 1 0 15 0 a7.5 7.5 0 1 0 -15 0zM1288.5 252.05 a7.5 7.5 0 1 0 15 0 a7.5 7.5 0 1 0 -15 0zM1288.5 327.05 a7.5 7.5 0 1 0 15 0 a7.5 7.5 0 1 0 -15 0zM1223.55 364.55 a7.5 7.5 0 1 0 15 0 a7.5 7.5 0 1 0 -15 0zM1158.59 327.05 a7.5 7.5 0 1 0 15 0 a7.5 7.5 0 1 0 -15 0zM1158.59 252.05 a7.5 7.5 0 1 0 15 0 a7.5 7.5 0 1 0 -15 0zM1353.45 364.55 a7.5 7.5 0 1 0 15 0 a7.5 7.5 0 1 0 -15 0zM1353.45 439.55 a7.5 7.5 0 1 0 15 0 a7.5 7.5 0 1 0 -15 0zM1288.5 477.05 a7.5 7.5 0 1 0 15 0 a7.5 7.5 0 1 0 -15 0zM1223.55 439.55 a7.5 7.5 0 1 0 15 0 a7.5 7.5 0 1 0 -15 0zM1353.46 -10.45 a7.5 7.5 0 1 0 15 0 a7.5 7.5 0 1 0 -15 0zM1418.41 27.05 a7.5 7.5 0 1 0 15 0 a7.5 7.5 0 1 0 -15 0zM1418.41 102.05 a7.5 7.5 0 1 0 15 0 a7.5 7.5 0 1 0 -15 0zM1353.46 139.55 a7.5 7.5 0 1 0 15 0 a7.5 7.5 0 1 0 -15 0zM1288.5 102.05 a7.5 7.5 0 1 0 15 0 a7.5 7.5 0 1 0 -15 0zM1288.5 27.05 a7.5 7.5 0 1 0 15 0 a7.5 7.5 0 1 0 -15 0zM1483.36 139.55 a7.5 7.5 0 1 0 15 0 a7.5 7.5 0 1 0 -15 0zM1483.36 214.55 a7.5 7.5 0 1 0 15 0 a7.5 7.5 0 1 0 -15 0zM1418.41 252.05 a7.5 7.5 0 1 0 15 0 a7.5 7.5 0 1 0 -15 0zM1353.46 214.55 a7.5 7.5 0 1 0 15 0 a7.5 7.5 0 1 0 -15 0zM1353.46 439.55 a7.5 7.5 0 1 0 15 0 a7.5 7.5 0 1 0 -15 0zM1418.41 477.05 a7.5 7.5 0 1 0 15 0 a7.5 7.5 0 1 0 -15 0zM1418.41 552.05 a7.5 7.5 0 1 0 15 0 a7.5 7.5 0 1 0 -15 0zM1353.46 589.55 a7.5 7.5 0 1 0 15 0 a7.5 7.5 0 1 0 -15 0zM1288.5 552.05 a7.5 7.5 0 1 0 15 0 a7.5 7.5 0 1 0 -15 0zM1548.32 327.05 a7.5 7.5 0 1 0 15 0 a7.5 7.5 0 1 0 -15 0zM1613.27 364.55 a7.5 7.5 0 1 0 15 0 a7.5 7.5 0 1 0 -15 0zM1613.27 439.55 a7.5 7.5 0 1 0 15 0 a7.5 7.5 0 1 0 -15 0zM1548.32 477.05 a7.5 7.5 0 1 0 15 0 a7.5 7.5 0 1 0 -15 0zM1483.36 439.55 a7.5 7.5 0 1 0 15 0 a7.5 7.5 0 1 0 -15 0zM1483.36 364.55 a7.5 7.5 0 1 0 15 0 a7.5 7.5 0 1 0 -15 0zM1548.32 552.05 a7.5 7.5 0 1 0 15 0 a7.5 7.5 0 1 0 -15 0zM1613.27 589.55 a7.5 7.5 0 1 0 15 0 a7.5 7.5 0 1 0 -15 0zM1613.27 664.55 a7.5 7.5 0 1 0 15 0 a7.5 7.5 0 1 0 -15 0zM1548.32 702.05 a7.5 7.5 0 1 0 15 0 a7.5 7.5 0 1 0 -15 0zM1483.36 664.55 a7.5 7.5 0 1 0 15 0 a7.5 7.5 0 1 0 -15 0zM1483.36 589.55 a7.5 7.5 0 1 0 15 0 a7.5 7.5 0 1 0 -15 0z" fill="#03305d"></path><path d="M23.15 -12.85L66.45 12.15L66.45 62.15L23.15 87.15L-20.15 62.15L-20.15 12.15zM23.15 137.15L66.45 162.15L66.45 212.15L23.15 237.15L-20.15 212.15L-20.15 162.15zM23.15 437.15L66.45 462.15L66.45 512.15L23.15 537.15L-20.15 512.15L-20.15 462.15zM153.06 362.15L196.36 387.15L196.36 437.15L153.06 462.15L109.75 437.15L109.75 387.15zM153.06 512.15L196.36 537.15L196.36 587.15L153.06 612.15L109.75 587.15L109.75 537.15zM196.36 137.15L239.66 162.15L239.66 212.15L196.36 237.15L153.06 212.15L153.06 162.15zM196.36 287.15L239.66 312.15L239.66 362.15L196.36 387.15L153.06 362.15L153.06 312.15zM239.66 512.15L282.96 537.15L282.96 587.15L239.66 612.15L196.36 587.15L196.36 537.15zM282.96 -12.85L326.27 12.15L326.27 62.15L282.96 87.15L239.66 62.15L239.66 12.15zM326.27 212.15L369.57 237.15L369.57 287.15L326.27 312.15L282.96 287.15L282.96 237.15zM369.57 137.15L412.87 162.15L412.87 212.15L369.57 237.15L326.27 212.15L326.27 162.15zM412.87 212.15L456.18 237.15L456.18 287.15L412.87 312.15L369.57 287.15L369.57 237.15zM369.57 437.15L412.87 462.15L412.87 512.15L369.57 537.15L326.27 512.15L326.27 462.15zM456.18 -12.85L499.48 12.15L499.48 62.15L456.18 87.15L412.87 62.15L412.87 12.15zM499.48 512.15L542.78 537.15L542.78 587.15L499.48 612.15L456.18 587.15L456.18 537.15zM542.78 137.15L586.08 162.15L586.08 212.15L542.78 237.15L499.48 212.15L499.48 162.15zM542.78 287.15L586.08 312.15L586.08 362.15L542.78 387.15L499.48 362.15L499.48 312.15zM586.08 362.15L629.38 387.15L629.38 437.15L586.08 462.15L542.78 437.15L542.78 387.15zM629.38 137.15L672.69 162.15L672.69 212.15L629.38 237.15L586.08 212.15L586.08 162.15zM629.38 437.15L672.69 462.15L672.69 512.15L629.38 537.15L586.08 512.15L586.08 462.15zM715.99 -12.85L759.29 12.15L759.29 62.15L715.99 87.15L672.69 62.15L672.69 12.15zM715.99 137.15L759.29 162.15L759.29 212.15L715.99 237.15L672.69 212.15L672.69 162.15zM845.9 62.15L889.2 87.15L889.2 137.15L845.9 162.15L802.6 137.15L802.6 87.15zM845.9 212.15L889.2 237.15L889.2 287.15L845.9 312.15L802.6 287.15L802.6 237.15zM802.6 287.15L845.9 312.15L845.9 362.15L802.6 387.15L759.29 362.15L759.29 312.15zM802.6 437.15L845.9 462.15L845.9 512.15L802.6 537.15L759.29 512.15L759.29 462.15zM889.2 -12.85L932.5 12.15L932.5 62.15L889.2 87.15L845.9 62.15L845.9 12.15zM932.5 212.15L975.81 237.15L975.81 287.15L932.5 312.15L889.2 287.15L889.2 237.15zM889.2 287.15L932.5 312.15L932.5 362.15L889.2 387.15L845.9 362.15L845.9 312.15zM975.81 -12.85L1019.11 12.15L1019.11 62.15L975.81 87.15L932.5 62.15L932.5 12.15zM1019.11 62.15L1062.41 87.15L1062.41 137.15L1019.11 162.15L975.81 137.15L975.81 87.15zM1019.11 212.15L1062.41 237.15L1062.41 287.15L1019.11 312.15L975.81 287.15L975.81 237.15zM975.81 287.15L1019.11 312.15L1019.11 362.15L975.81 387.15L932.5 362.15L932.5 312.15zM1019.11 362.15L1062.41 387.15L1062.41 437.15L1019.11 462.15L975.81 437.15L975.81 387.15zM1062.41 137.15L1105.71 162.15L1105.71 212.15L1062.41 237.15L1019.11 212.15L1019.11 162.15zM1105.71 212.15L1149.02 237.15L1149.02 287.15L1105.71 312.15L1062.41 287.15L1062.41 237.15zM1062.41 437.15L1105.71 462.15L1105.71 512.15L1062.41 537.15L1019.11 512.15L1019.11 462.15zM1105.71 512.15L1149.02 537.15L1149.02 587.15L1105.71 612.15L1062.41 587.15L1062.41 537.15zM1278.92 62.15L1322.23 87.15L1322.23 137.15L1278.92 162.15L1235.62 137.15L1235.62 87.15zM1365.53 212.15L1408.83 237.15L1408.83 287.15L1365.53 312.15L1322.23 287.15L1322.23 237.15zM1322.23 287.15L1365.53 312.15L1365.53 362.15L1322.23 387.15L1278.92 362.15L1278.92 312.15zM1408.83 -12.85L1452.13 12.15L1452.13 62.15L1408.83 87.15L1365.53 62.15L1365.53 12.15zM1408.83 287.15L1452.13 312.15L1452.13 362.15L1408.83 387.15L1365.53 362.15L1365.53 312.15zM1452.13 512.15L1495.44 537.15L1495.44 587.15L1452.13 612.15L1408.83 587.15L1408.83 537.15z" stroke="rgba(6, 80, 156, 0.93)" stroke-width="2"></path></g><defs><mask id="SvgjsMask1000"><rect width="1440" height="560" fill="#ffffff"></rect></mask></defs></svg>